<?xml version="1.0" encoding="UTF-8" standalone="no"?>
<svg
   xmlns:dc="http://purl.org/dc/elements/1.1/"
   xmlns:cc="http://creativecommons.org/ns#"
   xmlns:rdf="http://www.w3.org/1999/02/22-rdf-syntax-ns#"
   xmlns:svg="http://www.w3.org/2000/svg"
   xmlns="http://www.w3.org/2000/svg"
   xmlns:sodipodi="http://sodipodi.sourceforge.net/DTD/sodipodi-0.dtd"
   xmlns:inkscape="http://www.inkscape.org/namespaces/inkscape"
   width="256"
   height="256"
   viewBox="-142.5 -142.5 256 256"
   version="1.1"
   id="svg883"
   sodipodi:docname="remote-raspberry.svg"
   inkscape:version="1.0.1 (1.0.1+r73)">
  <metadata
     id="metadata889">
    <rdf:RDF>
      <cc:Work
         rdf:about="">
        <dc:format>image/svg+xml</dc:format>
        <dc:type
           rdf:resource="http://purl.org/dc/dcmitype/StillImage" />
        <dc:title></dc:title>
      </cc:Work>
    </rdf:RDF>
  </metadata>
  <defs
     id="defs887">
    <filter
       style="color-interpolation-filters:sRGB"
       inkscape:label="Drop Shadow"
       id="filter1043">
      <feFlood
         flood-opacity="0.498039"
         flood-color="rgb(0,0,0)"
         result="flood"
         id="feFlood1033" />
      <feComposite
         in="flood"
         in2="SourceGraphic"
         operator="in"
         result="composite1"
         id="feComposite1035" />
      <feGaussianBlur
         in="composite1"
         stdDeviation="6"
         result="blur"
         id="feGaussianBlur1037" />
      <feOffset
         dx="10"
         dy="10"
         result="offset"
         id="feOffset1039" />
      <feComposite
         in="SourceGraphic"
         in2="offset"
         operator="over"
         result="composite2"
         id="feComposite1041" />
    </filter>
  </defs>
  <sodipodi:namedview
     pagecolor="#ffffff"
     bordercolor="#666666"
     borderopacity="1"
     objecttolerance="10"
     gridtolerance="10"
     guidetolerance="10"
     inkscape:pageopacity="0"
     inkscape:pageshadow="2"
     inkscape:window-width="1920"
     inkscape:window-height="1016"
     id="namedview885"
     showgrid="false"
     inkscape:zoom="3.3242188"
     inkscape:cx="128"
     inkscape:cy="128"
     inkscape:window-x="0"
     inkscape:window-y="27"
     inkscape:window-maximized="1"
     inkscape:current-layer="svg883"
     showguides="true"
     inkscape:guide-bbox="true"
     inkscape:document-rotation="0">
    <sodipodi:guide
       position="188.84168,211.48128"
       orientation="0.70710678,0.70710678"
       id="guide2342"
       inkscape:locked="false"
       inkscape:label=""
       inkscape:color="rgb(0,0,255)" />
    <sodipodi:guide
       position="115.8803,211.48128"
       orientation="0.70710678,0.70710678"
       id="guide2344"
       inkscape:locked="false"
       inkscape:label=""
       inkscape:color="rgb(0,0,255)" />
    <sodipodi:guide
       position="78.329345,181.01385"
       orientation="0.70710678,0.70710678"
       id="guide2348"
       inkscape:locked="false"
       inkscape:label=""
       inkscape:color="rgb(0,0,255)" />
    <sodipodi:guide
       position="75.034888,138.62298"
       orientation="0.70710678,0.70710678"
       id="guide2354"
       inkscape:locked="false"
       inkscape:label=""
       inkscape:color="rgb(0,0,255)" />
    <sodipodi:guide
       position="75.358915,131.19978"
       orientation="0.70710678,0.70710678"
       id="guide2358"
       inkscape:locked="false"
       inkscape:label=""
       inkscape:color="rgb(0,0,255)" />
    <sodipodi:guide
       position="74.953125,87.440079"
       orientation="0.70710678,0.70710678"
       id="guide2360"
       inkscape:locked="false"
       inkscape:label=""
       inkscape:color="rgb(0,0,255)" />
    <sodipodi:guide
       position="80.218124,63.385072"
       orientation="0.70710678,0.70710678"
       id="guide1614" />
  </sodipodi:namedview>
  <circle
     style="opacity:1;fill:#bc1142;fill-opacity:1;fill-rule:nonzero;stroke:none;stroke-width:20.91894531;stroke-linecap:round;stroke-miterlimit:4;stroke-dasharray:none;stroke-dashoffset:0;stroke-opacity:1"
     id="path1467"
     cx="-14.5"
     cy="-14.5"
     r="116" />
  <path
     id="path1616"
     style="fill:#400716;stroke:none;stroke-width:1px;stroke-linecap:butt;stroke-linejoin:miter;stroke-opacity:1;fill-opacity:1"
     d="M 115.88086 44.519531 L 115.14844 53.873047 L 95.960938 47.794922 L 76.119141 48.345703 L 89.478516 67.207031 L 89.134766 76.013672 L 78.330078 74.986328 L 97.279297 93.935547 L 75.035156 117.37695 L 98.876953 141.21875 L 95.017578 144.45898 L 75.359375 124.80078 L 66.751953 160.31641 L 87.283203 180.89062 L 80.21875 192.61523 L 131.54883 243.94531 A 116 116 0 0 0 244 128 A 116 116 0 0 0 239.1582 94.835938 L 188.8418 44.519531 L 132.3125 60.951172 L 115.88086 44.519531 z "
     transform="translate(-142.5,-142.5)" />
  <path
     d="m -47.755151,-104.5 c 0.744687,1.09725 2.277234,2.15133 0.787852,3.59753 -1.856322,-1.4462 -3.741417,-2.52907 -8.205949,-3.25936 1.122426,1.07925 2.906803,2.1621 1.798758,3.25936 -2.23766,-0.71951 -4.781105,-1.43182 -7.759854,-1.79876 1.489373,1.4462 2.572227,2.52904 1.460593,3.259349 -2.230462,-1.079259 -5.871158,-1.838329 -9.216855,-1.122429 l 2.136924,2.248455 c 0.363356,0.363348 -5.202018,0.334574 -8.544114,0.334574 1.108036,1.81315 2.626191,3.626299 3.370878,6.522311 -0.363349,0.36694 -2.219678,0 -3.709044,0 1.489366,3.626307 4.468121,4.29904 5.957496,5.396283 -1.122426,0.719504 -2.554246,0.366957 -4.04721,0 1.111635,2.529063 3.640689,4.370995 5.507803,6.184144 -0.37774,0.363349 -1.136818,0.813042 -3.370878,0.449694 1.856321,2.176505 4.144346,3.946482 6.745355,5.396283 -0.744687,0.715913 -2.219671,0.672741 -3.709044,0.672741 2.219669,2.543445 5.227199,3.723434 8.205957,5.173236 -1.489384,1.079261 -2.698147,0.672741 -3.824172,0.672741 1.870713,1.813148 5.313546,2.518262 8.659241,3.597525 -0.744687,1.082853 -1.208771,1.097243 -2.698145,1.460591 3.345696,1.813149 8.544122,1.140417 9.66655,2.590218 0,1.079253 -1.0253,1.766386 -2.136934,2.133332 5.579765,0 20.419549,-0.323774 23.383907,-11.580434 -5.576157,-6.15176 -16.034166,-13.447539 -33.500141,-22.146354 13.756931,4.353004 26.010098,10.555137 36.424934,18.887004 12.267548,-5.439465 3.694653,-19.606508 -2.248461,-25.409315 -0.36694,1.449793 -0.633159,2.223261 -1.010898,2.59021 -1.856322,-2.180098 -3.360087,-4.374586 -5.961096,-6.187739 0,1.09725 0.705113,2.180101 -0.78426,3.262955 -1.489382,-1.813145 -3.388869,-3.273735 -5.62293,-4.723555 1.111635,1.81315 0.410112,2.52906 -0.334575,3.259362 -1.856322,-1.805952 -3.698253,-3.273752 -7.421688,-4.719952 z m 65.992976,0 c -3.374478,1.09725 -5.216409,2.9248 -7.083522,4.38538 -0.744687,-0.73029 -1.4606012,-1.43541 -0.338166,-3.26295 a 17.868902,17.868902 0 0 0 -5.6193392,4.723548 c -1.4893738,-0.730304 -0.7878506,-2.165718 -0.7878506,-3.259348 -2.6154001,2.194477 -4.09038288,3.993244 -5.9575051,6.184132 -0.3813299,0 -0.7590779,-1.126026 -1.1260259,-2.590208 -5.9862777,5.482619 -14.1634522,19.689248 -1.460592,25.524432 10.4687906,-8.393021 22.8083028,-14.152661 36.6515728,-18.887011 -17.581095,8.752778 -28.1074498,16.059356 -33.7303798,22.257891 2.9967299,11.314214 18.0020068,11.943782 23.6105458,11.580424 -1.126027,-0.730295 -1.870714,-1.043278 -2.248452,-2.136922 1.503765,-0.730297 6.310061,0.0288 9.670148,-1.798769 -1.492973,-0.366946 -1.84194,-0.366946 -2.590217,-1.460591 2.996738,-1.097244 6.677,-1.885104 8.547714,-3.709045 -1.111635,0 -2.219671,0.420904 -3.712644,-0.676341 2.615399,-1.4462 5.971886,-2.978747 8.209546,-5.173236 -1.489373,-0.363356 -3.331304,-0.305792 -3.712643,-0.67273 a 53.621095,53.621095 0 0 0 6.748956,-5.507811 c -1.870713,0.363347 -2.996739,0.0288 -3.374477,-0.338175 1.870712,-2.19448 4.496903,-3.626308 5.622929,-6.184144 -1.492974,0.730296 -3.036312,0.730296 -4.162337,0 0.744686,-1.460591 3.79539,-2.194487 5.284763,-5.845977 -1.489373,0 -3.331305,0.366958 -3.709044,0 0.755479,-2.921185 2.248452,-4.806289 3.370877,-6.63383 -3.370877,0 -8.612469,0.0288 -8.993807,-0.334574 l 2.248452,-2.136935 c -3.370877,-0.73028 -6.702191,0.2806 -9.328382,1.010909 -1.126027,-1.093649 -0.0288,-2.162119 1.460591,-3.259349 a 41.551403,41.551403 0 0 0 -7.871382,1.79876 c -1.122425,-1.09726 0.787861,-2.16572 1.913886,-3.25936 -4.486113,1.09364 -6.338834,2.1621 -8.209547,3.25936 -1.489374,-1.4606 -0.08271,-2.50028 0.676332,-3.59753 z m -31.708575,47.667198 c -10.004715,0 -20.00943,7.687907 -20.00943,11.918601 0,5.381891 8.09443,11.24226 20.00943,11.24226 12.3107311,0 20.0130298,-4.230693 20.0130298,-10.008315 0,-6.5331 -11.1739135,-13.152546 -20.0130298,-13.152546 z m -30.352309,4.047219 c -14.055526,0.09712 -24.959619,9.821241 -24.283287,25.970522 0.377738,7.30657 36.622789,-24.254509 30.46743,-25.40931 a 33.726788,33.726788 0 0 0 -6.187743,-0.561212 z m 58.909453,0.561212 a 33.485754,33.485754 0 0 0 -6.1841432,0.449685 c -6.1517698,0.77347 29.9745722,32.223024 30.3559102,25.294195 0.334566,-15.807519 -10.191788,-25.376932 -24.175367,-25.74388 z m -7.0799312,19.674856 a 18.207069,18.207069 0 0 0 -9.5550207,2.698145 C -10.402064,-24.077346 -11.945403,-10.712545 -5.0345547,0.05484508 2.2720141,10.818639 15.453342,14.750733 24.306849,8.5989669 33.145965,2.8213432 34.610157,-10.654984 27.681326,-21.418775 22.918202,-28.55986 15.327431,-32.592689 8.0064628,-32.549515 Z m -44.8575208,0.89938 c -6.691391,0.575604 -13.433156,4.62282 -17.760976,11.353787 -7.306569,10.7637924 -5.748841,24.2437163 3.485997,30.017742 8.849915,5.774026 21.919715,1.953456 29.226292,-8.4325976 7.31016,-10.7637916 5.748841,-24.2401174 -3.482405,-30.0141424 a 17.800549,17.800549 0 0 0 -11.468908,-2.924789 z m 78.246144,11.691953 c -8.698815,0.07194 -2.316807,40.328248 5.51141,36.986148 8.457776,-6.928831 11.537263,-27.26204 -4.612023,-36.874623 a 3.4284403,3.4284403 0 0 0 -0.899387,-0.111521 z m -111.634766,0.676336 a 3.4284403,3.4284403 0 0 0 -0.899378,0.107921 c -16.160084,9.2384425 -13.461929,30.064511 -4.608432,36.989745 7.828217,3.360087 14.206626,-37.029317 5.50781,-37.101269 z m 57.222215,27.4311225 c -12.310721,0 -21.919715,9.2995995 -21.919715,20.4591195 v 0.338168 c 0,11.155921 9.608994,20.009427 21.919715,20.009427 12.29634032,0 21.9233158,-9.188076 21.9233158,-20.347595 0,-11.145129 -10.0047146,-20.0669895 -21.9233158,-20.4627177 z m 48.681701,7.9793085 c -5.173243,0.08633 -11.425743,5.061716 -17.203364,11.691953 -6.92883,7.687908 -10.7350112,22.247089 -5.730859,26.869907 5.000563,3.453622 17.649459,3.065091 26.866314,-10.004715 6.5367,-8.853506 4.245076,-23.020555 0.787861,-26.869907 -1.446211,-1.151208 -2.993139,-1.716019 -4.723552,-1.687238 z m -99.946418,3.036311 c -1.331084,0.1439 -2.669357,0.633162 -3.820564,1.349071 -3.849354,3.09387 -4.540077,13.447543 1.237545,23.833595 8.457778,12.310729 20.29003,13.418767 25.290594,10.342883 5.38549,-3.849351 2.338389,-17.314884 -3.820573,-24.621455 -5.943104,-6.871271 -13.094982,-11.479699 -18.887002,-10.904094 z m 47.778721,35.975239 c -8.429004,0.546824 -18.437311,3.950082 -18.437311,7.982909 0,3.453617 10.70983,12.746024 21.477213,12.364686 C -3.0810958,75.883453 7.6682968,66.60904 7.6682968,61.997018 7.2905578,57.751937 -4.1783487,54.762396 -13.017465,55.140135 a 32.017964,32.017964 0 0 0 -3.482396,0 z"
     id="surface1"
     style="stroke-width:3.59752;fill:#ffffff" />
</svg>
